<svg width="209" height="157" viewBox="0 0 209 157" fill="none" xmlns="http://www.w3.org/2000/svg">
<path d="M193.132 25.2944H0.527344V37.6338H193.132V25.2944Z" fill="#E0E0E0"/>
<path d="M193.103 48.9678H0.498047V156.986H193.103V48.9678Z" fill="white"/>
<path d="M0.527344 37.5399H26.9751L29.5918 29.9116H72.4641L75.0808 37.5399H193.132V49.2288H0.527344V37.5399Z" fill="#EBEBEB"/>
<path d="M6.88391 30.2173C6.88391 30.5039 6.79893 30.784 6.63974 31.0223C6.48054 31.2605 6.25428 31.4462 5.98954 31.5559C5.72481 31.6655 5.43351 31.6942 5.15247 31.6383C4.87144 31.5824 4.61329 31.4444 4.41067 31.2418C4.20805 31.0392 4.07007 30.781 4.01417 30.5C3.95827 30.219 3.98696 29.9277 4.09661 29.6629C4.20627 29.3982 4.39196 29.1719 4.63021 29.0127C4.86846 28.8535 5.14857 28.7686 5.43512 28.7686C5.62556 28.7679 5.81424 28.8049 5.99031 28.8775C6.16638 28.9501 6.32635 29.0568 6.46102 29.1915C6.59568 29.3261 6.70237 29.4861 6.77495 29.6622C6.84752 29.8382 6.88456 30.0269 6.88391 30.2173Z" fill="#1542D4"/>
<path d="M11.3644 30.2173C11.3644 30.5039 11.2794 30.784 11.1202 31.0223C10.961 31.2605 10.7347 31.4462 10.47 31.5559C10.2053 31.6655 9.91398 31.6942 9.63294 31.6383C9.3519 31.5824 9.09376 31.4444 8.89114 31.2418C8.68852 31.0392 8.55054 30.781 8.49464 30.5C8.43873 30.219 8.46743 29.9277 8.57708 29.6629C8.68674 29.3982 8.87243 29.1719 9.11068 29.0127C9.34894 28.8535 9.62904 28.7686 9.91559 28.7686C10.106 28.7679 10.2947 28.8049 10.4708 28.8775C10.6469 28.9501 10.8068 29.0568 10.9415 29.1915C11.0761 29.3261 11.1828 29.4861 11.2554 29.6622C11.328 29.8382 11.365 30.0269 11.3644 30.2173Z" fill="#1542D4"/>
<path d="M15.8429 30.2173C15.8429 30.5039 15.7579 30.784 15.5987 31.0223C15.4395 31.2605 15.2133 31.4462 14.9485 31.5559C14.6838 31.6655 14.3925 31.6942 14.1115 31.6383C13.8304 31.5824 13.5723 31.4444 13.3697 31.2418C13.167 31.0392 13.0291 30.781 12.9732 30.5C12.9172 30.219 12.9459 29.9277 13.0556 29.6629C13.1653 29.3982 13.3509 29.1719 13.5892 29.0127C13.8274 28.8535 14.1076 28.7686 14.3941 28.7686C14.5845 28.7679 14.7732 28.8049 14.9493 28.8775C15.1254 28.9501 15.2853 29.0568 15.42 29.1915C15.5547 29.3261 15.6614 29.4861 15.7339 29.6622C15.8065 29.8382 15.8435 30.0269 15.8429 30.2173Z" fill="#1542D4"/>
<path d="M171.844 46.903H39.7034C38.7311 46.903 37.7985 46.5167 37.111 45.8291C36.4234 45.1415 36.0371 44.209 36.0371 43.2366C36.0371 42.2643 36.4234 41.3317 37.111 40.6442C37.7985 39.9566 38.7311 39.5703 39.7034 39.5703H171.844C172.816 39.5703 173.749 39.9566 174.436 40.6442C175.124 41.3317 175.51 42.2643 175.51 43.2366C175.51 44.209 175.124 45.1415 174.436 45.8291C173.749 46.5167 172.816 46.903 171.844 46.903Z" fill="#FAFAFA"/>
<path d="M42.8669 43.7244V44.9663H42.2411V43.823C42.2411 43.4731 42.0784 43.3302 41.8025 43.3302C41.5265 43.3302 41.2801 43.5175 41.2801 43.9117V44.986H40.6543V41.98H41.2801V43.0247C41.4684 42.8534 41.7156 42.7616 41.97 42.7684C42.0951 42.7601 42.2205 42.7796 42.3372 42.8255C42.4539 42.8715 42.5589 42.9428 42.6447 43.0342C42.7305 43.1257 42.7949 43.235 42.8333 43.3544C42.8717 43.4737 42.8832 43.6001 42.8669 43.7244Z" fill="#E0E0E0"/>
<path d="M44.8294 44.8582C44.6825 44.9522 44.5109 45.0002 44.3366 44.9962C44.2296 45.0109 44.1207 45.0011 44.018 44.9677C43.9153 44.9342 43.8215 44.8778 43.7437 44.8029C43.6659 44.728 43.6062 44.6364 43.5689 44.535C43.5316 44.4336 43.5178 44.3251 43.5285 44.2176V43.3306H43.1934V42.8378H43.5285V42.3105H44.1543V42.8378H44.6914V43.3306H44.1543V44.2176C44.1489 44.2551 44.1521 44.2933 44.1637 44.3294C44.1752 44.3655 44.1947 44.3986 44.2207 44.426C44.2468 44.4535 44.2787 44.4748 44.3142 44.4882C44.3496 44.5016 44.3876 44.5068 44.4253 44.5034C44.5161 44.5046 44.6047 44.475 44.6766 44.4197L44.8294 44.8582Z" fill="#E0E0E0"/>
<path d="M46.513 44.8582C46.3656 44.9511 46.1944 44.9991 46.0202 44.9962C45.9132 45.0109 45.8043 45.0011 45.7016 44.9677C45.5989 44.9342 45.5051 44.8778 45.4273 44.8029C45.3495 44.728 45.2898 44.6364 45.2525 44.535C45.2152 44.4336 45.2014 44.3251 45.2121 44.2176V43.3306H44.877V42.8378H45.2121V42.3105H45.8379V42.8378H46.3799V43.3306H45.8379V44.2176C45.8335 44.255 45.8373 44.2928 45.8492 44.3285C45.861 44.3641 45.8806 44.3968 45.9064 44.4241C45.9323 44.4513 45.9638 44.4726 45.9988 44.4863C46.0338 44.5 46.0714 44.5059 46.1089 44.5034C46.2012 44.5045 46.2913 44.4751 46.3652 44.4197L46.513 44.8582Z" fill="#E0E0E0"/>
<path d="M49.2442 43.8824C49.2532 44.028 49.2317 44.1739 49.1811 44.3108C49.1305 44.4477 49.0519 44.5725 48.9503 44.6773C48.8488 44.7821 48.7265 44.8646 48.5913 44.9195C48.456 44.9744 48.3109 45.0004 48.165 44.9961C48.0442 45.0018 47.9235 44.9814 47.8113 44.9363C47.6991 44.8912 47.5978 44.8226 47.5145 44.7349V45.7205H46.8887V42.7637H47.4997V43.0151C47.5849 42.9204 47.6902 42.8461 47.8079 42.7975C47.9256 42.7489 48.0526 42.7272 48.1798 42.7342C48.3276 42.7314 48.4742 42.7599 48.6102 42.8178C48.7462 42.8757 48.8685 42.9616 48.969 43.07C49.0694 43.1784 49.1459 43.3068 49.1933 43.4468C49.2408 43.5868 49.2581 43.7352 49.2442 43.8824ZM48.6085 43.8824C48.5989 43.7758 48.5586 43.6744 48.4925 43.5903C48.4263 43.5063 48.3372 43.4432 48.2359 43.4089C48.1346 43.3746 48.0255 43.3704 47.9218 43.397C47.8182 43.4235 47.7245 43.4796 47.6522 43.5584C47.5799 43.6372 47.532 43.7353 47.5144 43.8408C47.4968 43.9463 47.5102 44.0547 47.5531 44.1527C47.5959 44.2507 47.6663 44.3342 47.7557 44.3929C47.8451 44.4516 47.9496 44.4831 48.0566 44.4836C48.1336 44.4846 48.21 44.4694 48.2808 44.4389C48.3515 44.4084 48.415 44.3633 48.4671 44.3065C48.5193 44.2498 48.5588 44.1827 48.5831 44.1096C48.6075 44.0365 48.6161 43.959 48.6085 43.8824Z" fill="#E0E0E0"/>
<path d="M49.5103 43.1578C49.5211 43.0615 49.567 42.9725 49.6393 42.9079C49.7116 42.8433 49.8051 42.8076 49.902 42.8076C49.999 42.8076 50.0925 42.8433 50.1648 42.9079C50.237 42.9725 50.283 43.0615 50.2938 43.1578C50.3 43.213 50.2945 43.2688 50.2776 43.3217C50.2608 43.3745 50.2329 43.4232 50.1959 43.4646C50.159 43.506 50.1137 43.539 50.063 43.5617C50.0124 43.5844 49.9575 43.5961 49.902 43.5961C49.8466 43.5961 49.7917 43.5844 49.7411 43.5617C49.6904 43.539 49.6451 43.506 49.6081 43.4646C49.5712 43.4232 49.5433 43.3745 49.5265 43.3217C49.5096 43.2688 49.5041 43.213 49.5103 43.1578ZM49.5103 44.6017C49.5211 44.5054 49.567 44.4164 49.6393 44.3518C49.7116 44.2872 49.8051 44.2515 49.902 44.2515C49.999 44.2515 50.0925 44.2872 50.1648 44.3518C50.237 44.4164 50.283 44.5054 50.2938 44.6017C50.3 44.6568 50.2945 44.7127 50.2776 44.7655C50.2608 44.8184 50.2329 44.8671 50.1959 44.9084C50.159 44.9498 50.1137 44.9829 50.063 45.0056C50.0124 45.0282 49.9575 45.0399 49.902 45.0399C49.8466 45.0399 49.7917 45.0282 49.7411 45.0056C49.6904 44.9829 49.6451 44.9498 49.6081 44.9084C49.5712 44.8671 49.5433 44.8184 49.5265 44.7655C49.5096 44.7127 49.5041 44.6568 49.5103 44.6017Z" fill="#E0E0E0"/>
<path d="M51.8354 41.5762H52.3971L51.0666 45.3657H50.5098L51.8354 41.5762Z" fill="#E0E0E0"/>
<path d="M53.1215 41.5762H53.6784L52.3528 45.3657H51.791L53.1215 41.5762Z" fill="#E0E0E0"/>
<path d="M171.725 68.3932H56.5955C54.8717 68.3932 53.2184 67.7084 51.9995 66.4895C50.7805 65.2705 50.0957 63.6173 50.0957 61.8934C50.097 60.1699 50.7822 58.5174 52.0009 57.2988C53.2196 56.0801 54.8721 55.3949 56.5955 55.3936H171.725C173.448 55.3949 175.101 56.0801 176.32 57.2988C177.538 58.5174 178.223 60.1699 178.225 61.8934C178.225 63.6173 177.54 65.2705 176.321 66.4895C175.102 67.7084 173.449 68.3932 171.725 68.3932Z" fill="#FAFAFA"/>
<path d="M171.725 68.3936C172.644 68.3738 173.549 68.1693 174.386 67.7924C175.211 67.413 175.947 66.8667 176.549 66.1882C177.151 65.5096 177.606 64.7135 177.885 63.8501C178.119 63.0797 178.209 62.2729 178.151 61.4699C178.09 60.571 177.842 59.6948 177.422 58.8976C176.952 58.0242 176.29 57.2692 175.485 56.6899C174.606 56.0563 173.58 55.6562 172.504 55.5269C171.932 55.478 171.358 55.4615 170.784 55.4777H168.99H152.438L56.6058 55.5122C55.4551 55.5155 54.3265 55.8287 53.3387 56.4189C52.3681 56.9984 51.5691 57.8257 51.0237 58.8159C50.4784 59.8061 50.2063 60.9236 50.2354 62.0537C50.2645 63.1838 50.5937 64.2858 51.1893 65.2466C51.7849 66.2074 52.6253 66.9925 53.6245 67.5213C54.6114 68.0328 55.7114 68.287 56.8227 68.2605H88.9424L132.027 68.2901L161.101 68.3295H168.985H171.04C171.504 68.3295 171.74 68.3295 171.74 68.3295H171.04H168.985H161.101L132.027 68.3739L88.9424 68.3985H63.495H56.8227C55.6698 68.4282 54.5284 68.1637 53.5062 67.6297C52.1977 66.9378 51.1584 65.8277 50.5541 64.4764C49.9497 63.1251 49.8152 61.6104 50.1718 60.1738C50.5284 58.7371 51.3557 57.4612 52.5218 56.5493C53.6878 55.6375 55.1256 55.1423 56.6058 55.1426L152.462 55.3052H169.015H170.809C171.389 55.291 171.97 55.3091 172.548 55.3594C173.644 55.4956 174.686 55.9076 175.579 56.5569C176.362 57.1177 177.01 57.8455 177.477 58.6875C177.944 59.5295 178.218 60.4647 178.279 61.4256C178.331 62.2411 178.234 63.0593 177.994 63.8402C177.77 64.5219 177.437 65.1626 177.008 65.7375C176.34 66.6436 175.448 67.3616 174.421 67.8219C173.795 68.0973 173.13 68.2751 172.45 68.3492C171.962 68.3936 171.725 68.3936 171.725 68.3936Z" fill="#1542D4"/>
<path d="M59.2383 63.2782L59.4797 62.7361C59.7847 62.9451 60.145 63.0583 60.5146 63.0614C60.9433 63.0614 61.1158 62.9185 61.1158 62.7263C61.1158 62.1399 59.2974 62.5439 59.2974 61.381C59.2974 60.8488 59.7261 60.3954 60.6181 60.3954C60.9977 60.3881 61.3723 60.4835 61.7022 60.6714L61.4804 61.2233C61.2178 61.0668 60.9188 60.9818 60.6131 60.9769C60.1844 60.9769 60.0169 61.1395 60.0169 61.3366C60.0169 61.9132 61.8353 61.514 61.8353 62.6622C61.8353 63.1846 61.4016 63.6478 60.5097 63.6478C60.0579 63.6582 59.614 63.5291 59.2383 63.2782Z" fill="#E0E0E0"/>
<path d="M64.6237 62.5834H62.8053C62.8415 62.735 62.9312 62.8683 63.058 62.9589C63.1848 63.0495 63.3401 63.0911 63.4952 63.0762C63.6063 63.0796 63.7168 63.0604 63.8202 63.0198C63.9235 62.9791 64.0175 62.9178 64.0964 62.8396L64.466 63.2437C64.2781 63.4245 64.0434 63.5492 63.7884 63.6037C63.5334 63.6582 63.2682 63.6404 63.0228 63.5523C62.7774 63.4642 62.5615 63.3092 62.3994 63.1049C62.2373 62.9007 62.1356 62.6552 62.1056 62.3961C62.1034 62.2293 62.1353 62.0638 62.1995 61.9098C62.2637 61.7558 62.3587 61.6165 62.4788 61.5007C62.5988 61.3848 62.7413 61.2947 62.8975 61.236C63.0536 61.1773 63.2202 61.1512 63.3868 61.1592C63.553 61.1508 63.7191 61.1772 63.8744 61.2369C64.0298 61.2965 64.171 61.3879 64.2888 61.5053C64.4067 61.6228 64.4987 61.7636 64.559 61.9187C64.6192 62.0738 64.6463 62.2398 64.6385 62.406C64.6385 62.4503 64.6286 62.5243 64.6237 62.5834ZM62.7955 62.1744H63.9782C63.9528 62.036 63.8797 61.911 63.7717 61.8209C63.6637 61.7309 63.5275 61.6816 63.3868 61.6816C63.2462 61.6816 63.11 61.7309 63.0019 61.8209C62.8939 61.911 62.8208 62.036 62.7955 62.1744Z" fill="#E0E0E0"/>
<path d="M67.1605 62.214V63.5889H66.51V63.2883C66.4288 63.4047 66.3178 63.4972 66.1887 63.5562C66.0595 63.6151 65.9169 63.6383 65.7758 63.6234C65.214 63.6234 64.8789 63.308 64.8789 62.894C64.8789 62.4801 65.1795 62.1746 65.9088 62.1746H66.4657C66.4657 61.8789 66.2833 61.6818 65.9088 61.6818C65.661 61.6796 65.4191 61.7574 65.2189 61.9035L64.9676 61.4108C65.2762 61.2137 65.6364 61.1125 66.0025 61.12C66.717 61.1496 67.1605 61.4896 67.1605 62.214ZM66.4657 62.83V62.5836H65.9729C65.6477 62.5836 65.5442 62.7019 65.5442 62.8645C65.5442 63.0271 65.692 63.1552 65.9335 63.1552C66.0455 63.1663 66.158 63.1405 66.2541 63.0818C66.3501 63.0231 66.4244 62.9347 66.4657 62.83Z" fill="#E0E0E0"/>
<path d="M69.2842 61.1496V61.7903H69.1265C69.039 61.783 68.951 61.7954 68.8689 61.8264C68.7868 61.8574 68.7127 61.9063 68.6518 61.9695C68.591 62.0327 68.5449 62.1087 68.5171 62.1919C68.4892 62.2751 68.4802 62.3635 68.4908 62.4506V63.5889H67.791V61.1841H68.4563V61.4995C68.5567 61.3797 68.6841 61.2855 68.828 61.2247C68.972 61.1639 69.1283 61.1381 69.2842 61.1496Z" fill="#E0E0E0"/>
<path d="M69.502 62.3863C69.5021 62.215 69.5377 62.0456 69.6064 61.8887C69.6752 61.7318 69.7757 61.5909 69.9016 61.4747C70.0275 61.3585 70.1761 61.2697 70.338 61.2137C70.4999 61.1577 70.6716 61.1358 70.8423 61.1494C71.062 61.1318 71.2819 61.1807 71.4735 61.2896C71.6651 61.3986 71.8195 61.5626 71.9166 61.7605L71.3745 62.0512C71.3248 61.9515 71.2481 61.8677 71.1532 61.8093C71.0582 61.751 70.9488 61.7204 70.8374 61.7211C70.661 61.7211 70.4918 61.7911 70.367 61.9159C70.2422 62.0407 70.1721 62.2099 70.1721 62.3863C70.1721 62.5628 70.2422 62.732 70.367 62.8567C70.4918 62.9815 70.661 63.0516 70.8374 63.0516C70.9491 63.0534 71.059 63.0233 71.1541 62.9648C71.2493 62.9063 71.3257 62.8219 71.3745 62.7214L71.9166 63.0171C71.8177 63.2131 71.6628 63.3754 71.4715 63.4833C71.2803 63.5912 71.0613 63.6399 70.8423 63.6232C70.6716 63.6368 70.4999 63.6149 70.338 63.5589C70.1761 63.503 70.0275 63.4141 69.9016 63.2979C69.7757 63.1818 69.6752 63.0408 69.6064 62.8839C69.5377 62.727 69.5021 62.5576 69.502 62.3863Z" fill="#E0E0E0"/>
<path d="M74.7599 62.214V63.5889H74.0601V62.3175C74.0601 61.9282 73.8827 61.7508 73.5673 61.7508C73.2519 61.7508 72.9908 61.9578 72.9908 62.4013V63.5889H72.291V60.2725H72.9908V61.4354C73.0927 61.3395 73.2128 61.2648 73.3439 61.2157C73.4751 61.1666 73.6147 61.1442 73.7546 61.1496C73.8945 61.1388 74.0351 61.1594 74.1661 61.21C74.297 61.2605 74.415 61.3397 74.5114 61.4418C74.6078 61.5438 74.6801 61.6661 74.7231 61.7998C74.7661 61.9334 74.7787 62.0749 74.7599 62.214Z" fill="#E0E0E0"/>
<path d="M76.4844 63.1846C76.4844 63.0696 76.5301 62.9593 76.6114 62.878C76.6927 62.7967 76.803 62.751 76.918 62.751C77.033 62.751 77.1433 62.7967 77.2247 62.878C77.306 62.9593 77.3517 63.0696 77.3517 63.1846C77.3517 63.2996 77.306 63.4099 77.2247 63.4913C77.1433 63.5726 77.033 63.6183 76.918 63.6183C76.803 63.6183 76.6927 63.5726 76.6114 63.4913C76.5301 63.4099 76.4844 63.2996 76.4844 63.1846Z" fill="#E0E0E0"/>
<path d="M77.6583 63.1846C77.6593 63.099 77.6856 63.0157 77.7338 62.945C77.782 62.8743 77.8501 62.8195 77.9294 62.7875C78.0087 62.7554 78.0958 62.7475 78.1795 62.7648C78.2633 62.7821 78.3402 62.8238 78.4003 62.8846C78.4605 62.9454 78.5013 63.0227 78.5176 63.1067C78.534 63.1907 78.5251 63.2776 78.4921 63.3566C78.4592 63.4355 78.4036 63.503 78.3324 63.5504C78.2612 63.5978 78.1775 63.6232 78.092 63.6232C78.0344 63.6238 77.9773 63.6129 77.9241 63.5911C77.8708 63.5692 77.8225 63.5368 77.7821 63.4959C77.7416 63.455 77.7098 63.4063 77.6885 63.3528C77.6673 63.2993 77.657 63.2421 77.6583 63.1846Z" fill="#E0E0E0"/>
<path d="M78.8262 63.1846C78.8262 63.0696 78.8719 62.9593 78.9532 62.878C79.0345 62.7967 79.1448 62.751 79.2598 62.751C79.3748 62.751 79.4851 62.7967 79.5665 62.878C79.6478 62.9593 79.6935 63.0696 79.6935 63.1846C79.6935 63.2416 79.6823 63.298 79.6605 63.3506C79.6387 63.4032 79.6067 63.451 79.5665 63.4913C79.5262 63.5315 79.4784 63.5635 79.4258 63.5853C79.3732 63.6071 79.3168 63.6183 79.2598 63.6183C79.2029 63.6183 79.1465 63.6071 79.0939 63.5853C79.0413 63.5635 78.9934 63.5315 78.9532 63.4913C78.9129 63.451 78.881 63.4032 78.8592 63.3506C78.8374 63.298 78.8262 63.2416 78.8262 63.1846Z" fill="#E0E0E0"/>
<path d="M36.6925 79.6979C36.6925 79.7719 32.0702 79.8261 26.3736 79.8261C20.677 79.8261 16.0547 79.7719 16.0547 79.6979C16.0547 79.624 20.6721 79.5698 26.3736 79.5698C32.0751 79.5698 36.6925 79.6388 36.6925 79.6979Z" fill="black"/>
<path d="M37.5007 85.6064H16.0547V107.052H37.5007V85.6064Z" fill="#1542D4"/>
<path d="M167.812 90.6623C167.812 90.7313 141.202 90.7904 108.363 90.7904C75.5235 90.7904 48.9082 90.7313 48.9082 90.6623C48.9082 90.5933 75.5186 90.5342 108.363 90.5342C141.207 90.5342 167.812 90.5884 167.812 90.6623Z" fill="black"/>
<path d="M81.4319 98.7341C81.4319 98.808 74.4146 98.8622 65.7663 98.8622C57.1179 98.8622 50.0957 98.808 50.0957 98.7341C50.0957 98.6602 57.108 98.606 65.7663 98.606C74.4245 98.606 81.4319 98.6651 81.4319 98.7341Z" fill="black"/>
<path d="M148.81 106.224C148.81 106.293 126.709 106.352 99.4531 106.352C72.1971 106.352 50.0957 106.293 50.0957 106.224C50.0957 106.155 72.1922 106.091 99.4531 106.091C126.714 106.091 148.81 106.15 148.81 106.224Z" fill="#E0E0E0"/>
<path d="M36.6925 118.135C36.6925 118.204 32.0702 118.263 26.3736 118.263C20.677 118.263 16.0547 118.204 16.0547 118.135C16.0547 118.066 20.6721 118.007 26.3736 118.007C32.0751 118.007 36.6925 118.051 36.6925 118.135Z" fill="black"/>
<path d="M37.5007 124.019H16.0547V145.465H37.5007V124.019Z" fill="#1542D4"/>
<path d="M174.879 129.07C174.879 129.144 146.677 129.198 111.896 129.198C77.1152 129.198 48.9082 129.144 48.9082 129.07C48.9082 128.996 77.1054 128.942 111.896 128.942C146.687 128.942 174.879 129.001 174.879 129.07Z" fill="black"/>
<path d="M81.4319 137.147C81.4319 137.216 74.4146 137.275 65.7663 137.275C57.1179 137.275 50.0957 137.216 50.0957 137.147C50.0957 137.078 57.108 137.019 65.7663 137.019C74.4245 137.019 81.4319 137.078 81.4319 137.147Z" fill="black"/>
<path d="M165.999 144.632C165.999 144.706 140.054 144.76 108.052 144.76C76.0507 144.76 50.0957 144.706 50.0957 144.632C50.0957 144.558 76.0408 144.504 108.052 144.504C140.063 144.504 165.999 144.563 165.999 144.632Z" fill="#E0E0E0"/>
<path d="M67.26 34.8547C67.26 34.9286 60.4596 34.9828 52.0724 34.9828C43.6852 34.9828 36.8848 34.9286 36.8848 34.8547C36.8848 34.7808 43.6852 34.7266 52.0724 34.7266C60.4596 34.7266 67.26 34.7857 67.26 34.8547Z" fill="black"/>
<path d="M39.8618 59.1094H12.8867V67.2354H39.8618V59.1094Z" fill="#455A64"/>
<path d="M87.6274 80.3928C87.6274 80.4667 79.2501 80.5209 68.9016 80.5209C58.5531 80.5209 50.1758 80.4667 50.1758 80.3928C50.1758 80.3189 58.5531 80.2646 68.9016 80.2646C79.2501 80.2646 87.6274 80.3238 87.6274 80.3928Z" fill="#1542D4"/>
<path d="M87.6274 118.135C87.6274 118.204 79.2501 118.263 68.9016 118.263C58.5531 118.263 50.1758 118.204 50.1758 118.135C50.1758 118.066 58.5531 118.007 68.9016 118.007C79.2501 118.007 87.6274 118.051 87.6274 118.135Z" fill="#1542D4"/>
<path d="M169.246 64.0568C168.626 64.0578 168.02 63.8747 167.503 63.5307C166.987 63.1867 166.585 62.6972 166.347 62.1243C166.109 61.5514 166.047 60.9209 166.167 60.3125C166.288 59.704 166.587 59.1451 167.025 58.7065C167.464 58.2679 168.023 57.9693 168.631 57.8486C169.24 57.7278 169.87 57.7903 170.443 58.0281C171.016 58.2659 171.505 58.6684 171.85 59.1845C172.194 59.7007 172.377 60.3073 172.376 60.9276C172.374 61.7571 172.044 62.5523 171.458 63.1388C170.871 63.7254 170.076 64.0555 169.246 64.0568ZM169.246 58.2863C168.724 58.2853 168.213 58.4394 167.778 58.729C167.343 59.0187 167.003 59.4308 166.803 59.9134C166.602 60.396 166.549 60.9272 166.65 61.4399C166.752 61.9526 167.003 62.4237 167.372 62.7936C167.741 63.1635 168.212 63.4155 168.724 63.5178C169.237 63.6201 169.768 63.5681 170.251 63.3683C170.734 63.1686 171.147 62.83 171.437 62.3956C171.728 61.9611 171.883 61.4502 171.883 60.9276C171.883 60.2279 171.605 59.5569 171.111 59.0617C170.617 58.5665 169.946 58.2876 169.246 58.2863Z" fill="#1542D4"/>
<path d="M173.097 65.4464C173.03 65.4462 172.966 65.4197 172.919 65.3725L170.879 63.3471C170.856 63.3242 170.838 63.2969 170.825 63.2669C170.813 63.2369 170.807 63.2047 170.807 63.1722C170.807 63.1397 170.813 63.1075 170.825 63.0775C170.838 63.0475 170.856 63.0202 170.879 62.9973C170.902 62.9743 170.929 62.9561 170.959 62.9436C170.989 62.9312 171.022 62.9248 171.054 62.9248C171.087 62.9248 171.119 62.9312 171.149 62.9436C171.179 62.9561 171.206 62.9743 171.229 62.9973L173.269 65.0226C173.302 65.0577 173.325 65.1015 173.334 65.1489C173.342 65.1964 173.337 65.2453 173.319 65.29C173.301 65.3347 173.27 65.3732 173.231 65.401C173.191 65.4287 173.145 65.4445 173.097 65.4464Z" fill="#1542D4"/>
<path d="M121.358 98.1823C121.358 98.2513 113.291 98.3104 103.337 98.3104C93.3824 98.3104 85.3105 98.2513 85.3105 98.1823C85.3105 98.1133 93.3824 98.0542 103.337 98.0542C113.291 98.0542 121.358 98.1084 121.358 98.1823Z" fill="black"/>
<path d="M144.652 97.6252C144.652 97.6991 140.429 97.7533 135.225 97.7533C130.021 97.7533 125.793 97.6991 125.793 97.6252C125.793 97.5513 130.016 97.4971 135.225 97.4971C140.434 97.4971 144.652 97.5562 144.652 97.6252Z" fill="black"/>
<path d="M121.185 137.147C121.185 137.216 113.118 137.275 103.164 137.275C93.2095 137.275 85.1426 137.216 85.1426 137.147C85.1426 137.078 93.2095 137.019 103.164 137.019C113.118 137.019 121.185 137.078 121.185 137.147Z" fill="black"/>
<path d="M163.219 50.1604C159.64 48.4483 156.516 45.9151 154.101 42.7669C151.686 39.6188 150.05 35.9449 149.324 32.0443C148.598 28.1437 148.803 24.1268 149.924 20.3208C151.044 16.5147 153.048 13.0272 155.772 10.1422C158.495 7.25717 161.862 5.05628 165.597 3.71876C169.333 2.38123 173.331 1.94491 177.267 2.44531C181.203 2.94572 184.965 4.36871 188.246 6.59838C191.528 8.82806 194.237 11.8014 196.152 15.2761C198.731 19.949 199.759 25.3204 199.087 30.6154C198.416 35.9103 196.08 40.8551 192.416 44.7361C188.752 48.6172 183.949 51.234 178.702 52.2089C173.454 53.1838 168.033 52.4665 163.219 50.1604ZM184.222 6.23353C179.167 3.8205 173.416 3.29283 168.006 4.74567C162.596 6.19851 157.883 9.53625 154.717 14.1571C151.551 18.778 150.14 24.378 150.738 29.9474C151.337 35.5169 153.905 40.6893 157.981 44.5322C162.056 48.3751 167.37 50.6356 172.965 50.9062C178.56 51.1767 184.068 49.4395 188.495 46.0078C192.922 42.576 195.977 37.6755 197.11 32.1898C198.243 26.704 197.379 20.994 194.674 16.0892C192.304 11.7932 188.649 8.34671 184.222 6.23353Z" fill="#1542D4"/>
<path d="M205.737 77.7267C205.03 78.1616 204.179 78.2985 203.371 78.1073C202.563 77.9161 201.863 77.4125 201.426 76.7066L184.952 50.0026C184.877 49.8817 184.853 49.7359 184.885 49.5973C184.917 49.4588 185.004 49.3387 185.124 49.2634L188.638 47.0952C188.758 47.022 188.901 46.9981 189.038 47.0285C189.175 47.0588 189.295 47.141 189.372 47.2578L206.698 73.2916C206.937 73.6427 207.101 74.0386 207.182 74.4551C207.263 74.8717 207.258 75.3003 207.168 75.715C207.078 76.1297 206.905 76.5218 206.659 76.8676C206.413 77.2134 206.1 77.5057 205.737 77.7267Z" fill="#1542D4"/>
<path d="M163.826 48.889C160.245 47.1778 157.118 44.6448 154.701 41.4963C152.285 38.3478 150.646 34.6728 149.919 30.7709C149.191 26.8689 149.396 22.8504 150.517 19.0426C151.637 15.2349 153.641 11.7457 156.366 8.85938C159.09 5.97303 162.458 3.77117 166.195 2.4332C169.932 1.09523 173.932 0.659012 177.869 1.16008C181.806 1.66115 185.57 3.08533 188.852 5.31659C192.135 7.54785 194.844 10.5231 196.759 13.9998C199.336 18.673 200.363 24.0439 199.691 29.3382C199.019 34.6325 196.682 39.5766 193.019 43.4575C189.356 47.3384 184.555 49.9557 179.308 50.9318C174.061 51.908 168.64 51.1927 163.826 48.889ZM184.828 4.96212C179.773 2.54908 174.022 2.02142 168.613 3.47426C163.203 4.92709 158.49 8.26484 155.324 12.8857C152.158 17.5066 150.747 23.1066 151.345 28.676C151.943 34.2455 154.512 39.4179 158.587 43.2608C162.663 47.1037 167.977 49.3642 173.572 49.6348C179.167 49.9053 184.674 48.1681 189.102 44.7363C193.529 41.3046 196.584 36.4041 197.717 30.9184C198.85 25.4326 197.986 19.7226 195.28 14.8178C192.911 10.5217 189.256 7.0753 184.828 4.96212Z" fill="#455A64"/>
<path d="M185.276 48.2405L189.692 45.5162L207.21 73.9139C207.553 74.4701 207.662 75.1397 207.511 75.7756C207.36 76.4115 206.963 76.9615 206.407 77.3045L206.151 77.4624C205.595 77.8055 204.925 77.9136 204.289 77.7629C203.654 77.6122 203.104 77.2151 202.76 76.659L185.242 48.2612L185.276 48.2405Z" fill="#455A64"/>
<path d="M155.881 20.1794C155.904 19.9164 155.95 19.6558 156.019 19.4008C156.077 19.0973 156.154 18.7977 156.25 18.5039C156.362 18.1082 156.494 17.7184 156.645 17.336L156.896 16.6708C156.99 16.4392 157.113 16.2125 157.226 15.9661C157.448 15.4733 157.749 14.9805 158.049 14.4631C158.748 13.3533 159.557 12.3165 160.464 11.3684C161.387 10.4389 162.401 9.60366 163.489 8.87491C163.967 8.56288 164.461 8.27506 164.968 8.01253C165.204 7.88934 165.431 7.76121 165.658 7.65773L166.318 7.37684C166.695 7.21501 167.079 7.07354 167.471 6.95305C167.763 6.84812 168.06 6.76252 168.363 6.6968C168.617 6.62479 168.875 6.57045 169.137 6.53418C168.894 6.63678 168.643 6.72079 168.388 6.7855C168.092 6.86713 167.8 6.96585 167.516 7.08117C167.132 7.21223 166.755 7.36357 166.387 7.53453L165.741 7.82528C165.515 7.92876 165.293 8.06181 165.061 8.18501C164.569 8.42647 164.115 8.74186 163.608 9.05724C162.545 9.78147 161.555 10.6066 160.651 11.5212C159.756 12.4561 158.953 13.4742 158.251 14.5616C157.951 15.0544 157.645 15.5472 157.418 16.04C157.305 16.2765 157.177 16.4983 157.078 16.725L156.802 17.3804C156.615 17.7894 156.502 18.1836 156.379 18.5236C156.273 18.8122 156.184 19.1068 156.112 19.4057C156.056 19.6694 155.979 19.9281 155.881 20.1794Z" fill="#E0E0E0"/>
</svg>
